<svg width="14" height="14" viewBox="0 0 14 14" fill="none" xmlns="http://www.w3.org/2000/svg">
<path d="M0.217103 13.7803L0.219675 13.7829C0.287862 13.8515 0.368955 13.9061 0.45829 13.9433C0.547625 13.9806 0.64344 13.9998 0.740227 13.9999C0.821668 13.9998 0.902546 13.9864 0.979636 13.9601L5.17686 12.5363L13.2311 4.4821C13.7234 3.98969 14 3.32184 14 2.62549C14 1.92913 13.7233 1.26131 13.2309 0.76894C12.7385 0.276565 12.0706 -3.04837e-05 11.3743 2.51987e-09C10.6779 3.04888e-05 10.0101 0.276685 9.51774 0.769102L1.46354 8.8233L0.0398518 13.0204C-0.00499433 13.1509 -0.0121526 13.2914 0.0191978 13.4258C0.0505481 13.5602 0.119138 13.6831 0.217103 13.7803V13.7803ZM10.1866 1.43788C10.502 1.12486 10.9286 0.949578 11.373 0.950431C11.8174 0.951285 12.2434 1.1282 12.5576 1.44243C12.8718 1.75667 13.0487 2.18262 13.0496 2.62701C13.0504 3.0714 12.8751 3.49802 12.5621 3.81344L11.5029 4.87258L9.12738 2.49702L10.1866 1.43788ZM2.28847 9.33596L8.4586 3.1658L10.8342 5.54136L4.664 11.7115L1.0689 12.9311L2.28847 9.33596Z" fill="#767676"/>
</svg>
