<svg width="25" height="25" viewBox="0 0 25 25" fill="none" xmlns="http://www.w3.org/2000/svg">
<path d="M18.75 13.5396H13.5417V18.7479C13.5417 19.0242 13.432 19.2891 13.2366 19.4845C13.0413 19.6798 12.7763 19.7896 12.5 19.7896C12.2238 19.7896 11.9588 19.6798 11.7635 19.4845C11.5681 19.2891 11.4584 19.0242 11.4584 18.7479V13.5396H6.25004C5.97377 13.5396 5.70882 13.4298 5.51347 13.2345C5.31812 13.0391 5.20837 12.7742 5.20837 12.4979C5.20837 12.2216 5.31812 11.9567 5.51347 11.7613C5.70882 11.566 5.97377 11.4562 6.25004 11.4562H11.4584V6.2479C11.4584 5.97164 11.5681 5.70668 11.7635 5.51133C11.9588 5.31598 12.2238 5.20624 12.5 5.20624C12.7763 5.20624 13.0413 5.31598 13.2366 5.51133C13.432 5.70668 13.5417 5.97164 13.5417 6.2479V11.4562H18.75C19.0263 11.4562 19.2913 11.566 19.4866 11.7613C19.682 11.9567 19.7917 12.2216 19.7917 12.4979C19.7917 12.7742 19.682 13.0391 19.4866 13.2345C19.2913 13.4298 19.0263 13.5396 18.75 13.5396Z" fill="#444BFF"/>
</svg>
