<svg width="13" height="15" viewBox="0 0 13 15" fill="none" xmlns="http://www.w3.org/2000/svg">
<circle cx="6.5" cy="7.5" r="6.5" fill="#D9D9D9"/>
<path d="M5.7 8.81V7.22C6.24 7.19333 6.65333 7.08 6.94 6.88C7.23333 6.67333 7.38 6.37 7.38 5.97V5.83C7.38 5.52333 7.28667 5.28667 7.1 5.12C6.91333 4.94667 6.66333 4.86 6.35 4.86C6.01667 4.86 5.75 4.95667 5.55 5.15C5.35 5.34333 5.21333 5.59 5.14 5.89L4.19 5.51C4.25 5.30333 4.33667 5.10333 4.45 4.91C4.57 4.71667 4.72 4.54667 4.9 4.4C5.08 4.24667 5.29333 4.12667 5.54 4.04C5.78667 3.94667 6.07 3.9 6.39 3.9C6.71667 3.9 7.01333 3.94667 7.28 4.04C7.54667 4.13333 7.77333 4.26667 7.96 4.44C8.14667 4.60667 8.29 4.81333 8.39 5.06C8.49 5.3 8.54 5.56667 8.54 5.86C8.54 6.16 8.48667 6.43 8.38 6.67C8.28 6.90333 8.14333 7.10333 7.97 7.27C7.80333 7.43667 7.61333 7.57333 7.4 7.68C7.18667 7.78 6.96667 7.85 6.74 7.89V8.81H5.7ZM6.23 11.12C5.97667 11.12 5.79 11.06 5.67 10.94C5.55667 10.8133 5.5 10.6533 5.5 10.46V10.29C5.5 10.0967 5.55667 9.94 5.67 9.82C5.79 9.69333 5.97667 9.63 6.23 9.63C6.48333 9.63 6.66667 9.69333 6.78 9.82C6.9 9.94 6.96 10.0967 6.96 10.29V10.46C6.96 10.6533 6.9 10.8133 6.78 10.94C6.66667 11.06 6.48333 11.12 6.23 11.12Z" fill="#808080"/>
</svg>
