<svg width="16" height="16" viewBox="0 0 16 16" fill="none" xmlns="http://www.w3.org/2000/svg">
<path d="M12.788 14.766L7.84375 9.82171L2.89947 14.766C2.63721 15.0283 2.2815 15.1756 1.91061 15.1756C1.53972 15.1756 1.18402 15.0283 0.921754 14.766C0.659493 14.5037 0.512155 14.148 0.512155 13.7771C0.512155 13.4062 0.659493 13.0505 0.921754 12.7883L5.86604 7.84399L0.921753 2.89971C0.659492 2.63745 0.512155 2.28175 0.512155 1.91085C0.512155 1.53996 0.659491 1.18426 0.921753 0.921997C1.18401 0.659736 1.53972 0.5124 1.91061 0.5124C2.2815 0.5124 2.63721 0.659736 2.89947 0.921997L7.84375 5.86628L12.788 0.921997C13.0503 0.659736 13.406 0.512399 13.7769 0.512399C14.1478 0.5124 14.5035 0.659736 14.7657 0.921997C15.028 1.18426 15.1753 1.53996 15.1753 1.91085C15.1753 2.28175 15.028 2.63745 14.7657 2.89971L9.82146 7.84399L14.7657 12.7883C15.028 13.0505 15.1753 13.4062 15.1753 13.7771C15.1753 14.148 15.028 14.5037 14.7657 14.766C14.5035 15.0283 14.1478 15.1756 13.7769 15.1756C13.406 15.1756 13.0503 15.0283 12.788 14.766Z" fill="#444BFF"/>
</svg>
